<?xml version="1.0" encoding="utf-8"?>
<!-- Generator: Adobe Illustrator 23.0.4, SVG Export Plug-In . SVG Version: 6.00 Build 0)  -->
<svg version="1.1" id="dynamic-web-frame" xmlns="http://www.w3.org/2000/svg" xmlns:xlink="http://www.w3.org/1999/xlink" x="0px"
	 y="0px" viewBox="0 0 279 361.7" style="enable-background:new 0 0 279 361.7;" xml:space="preserve">
<style type="text/css">
	.frame-color{fill:#000000;}
	.background-color{fill:#ffffff;}
	.text-color{fill:#FFFFFF;}
	.icon-color{fill:#000000;opacity:1;}
	.icon-black{fill:#000000;opacity:0}

	.circle-color{fill:#000000;}
	.circle-color-black{fill:#FFFFFF;}
	.circle-outline{fill:#000000;opacity:0}

	.show_on_light{opacity:0;}
	.hide_on_light{opacity:1;}
</style>

<svg xmlns="http://www.w3.org/2000/svg" xmlns:xlink="http://www.w3.org/1999/xlink" version="1.1" width="259.8" height="259.8" viewBox="0 0 49 49" x="9.6" y="9.6" shape-rendering="crispEdges">
<rect x="0" y="0" width="49" height="49" fill="#ffffff"/>
<path d="M4,4H5V5H4zM5,4H6V5H5zM6,4H7V5H6zM7,4H8V5H7zM8,4H9V5H8zM9,4H10V5H9zM10,4H11V5H10zM15,4H16V5H15zM17,4H18V5H17zM24,4H25V5H24zM30,4H31V5H30zM33,4H34V5H33zM34,4H35V5H34zM38,4H39V5H38zM39,4H40V5H39zM40,4H41V5H40zM41,4H42V5H41zM42,4H43V5H42zM43,4H44V5H43zM44,4H45V5H44zM4,5H5V6H4zM10,5H11V6H10zM15,5H16V6H15zM16,5H17V6H16zM20,5H21V6H20zM24,5H25V6H24zM25,5H26V6H25zM28,5H29V6H28zM34,5H35V6H34zM35,5H36V6H35zM38,5H39V6H38zM44,5H45V6H44zM4,6H5V7H4zM6,6H7V7H6zM7,6H8V7H7zM8,6H9V7H8zM10,6H11V7H10zM12,6H13V7H12zM14,6H15V7H14zM16,6H17V7H16zM21,6H22V7H21zM23,6H24V7H23zM25,6H26V7H25zM26,6H27V7H26zM27,6H28V7H27zM28,6H29V7H28zM32,6H33V7H32zM35,6H36V7H35zM36,6H37V7H36zM38,6H39V7H38zM40,6H41V7H40zM41,6H42V7H41zM42,6H43V7H42zM44,6H45V7H44zM4,7H5V8H4zM6,7H7V8H6zM7,7H8V8H7zM8,7H9V8H8zM10,7H11V8H10zM12,7H13V8H12zM13,7H14V8H13zM14,7H15V8H14zM15,7H16V8H15zM17,7H18V8H17zM19,7H20V8H19zM20,7H21V8H20zM21,7H22V8H21zM22,7H23V8H22zM24,7H25V8H24zM27,7H28V8H27zM28,7H29V8H28zM32,7H33V8H32zM34,7H35V8H34zM35,7H36V8H35zM38,7H39V8H38zM40,7H41V8H40zM41,7H42V8H41zM42,7H43V8H42zM44,7H45V8H44zM4,8H5V9H4zM6,8H7V9H6zM7,8H8V9H7zM8,8H9V9H8zM10,8H11V9H10zM13,8H14V9H13zM16,8H17V9H16zM17,8H18V9H17zM18,8H19V9H18zM20,8H21V9H20zM21,8H22V9H21zM27,8H28V9H27zM29,8H30V9H29zM30,8H31V9H30zM33,8H34V9H33zM35,8H36V9H35zM38,8H39V9H38zM40,8H41V9H40zM41,8H42V9H41zM42,8H43V9H42zM44,8H45V9H44zM4,9H5V10H4zM10,9H11V10H10zM13,9H14V10H13zM18,9H19V10H18zM20,9H21V10H20zM21,9H22V10H21zM22,9H23V10H22zM25,9H26V10H25zM27,9H28V10H27zM33,9H34V10H33zM34,9H35V10H34zM38,9H39V10H38zM44,9H45V10H44zM4,10H5V11H4zM5,10H6V11H5zM6,10H7V11H6zM7,10H8V11H7zM8,10H9V11H8zM9,10H10V11H9zM10,10H11V11H10zM12,10H13V11H12zM14,10H15V11H14zM16,10H17V11H16zM18,10H19V11H18zM20,10H21V11H20zM22,10H23V11H22zM24,10H25V11H24zM26,10H27V11H26zM28,10H29V11H28zM30,10H31V11H30zM32,10H33V11H32zM34,10H35V11H34zM36,10H37V11H36zM38,10H39V11H38zM39,10H40V11H39zM40,10H41V11H40zM41,10H42V11H41zM42,10H43V11H42zM43,10H44V11H43zM44,10H45V11H44zM13,11H14V12H13zM15,11H16V12H15zM16,11H17V12H16zM18,11H19V12H18zM19,11H20V12H19zM20,11H21V12H20zM21,11H22V12H21zM23,11H24V12H23zM24,11H25V12H24zM30,11H31V12H30zM31,11H32V12H31zM32,11H33V12H32zM35,11H36V12H35zM36,11H37V12H36zM7,12H8V13H7zM8,12H9V13H8zM10,12H11V13H10zM11,12H12V13H11zM13,12H14V13H13zM14,12H15V13H14zM18,12H19V13H18zM20,12H21V13H20zM21,12H22V13H21zM23,12H24V13H23zM27,12H28V13H27zM28,12H29V13H28zM32,12H33V13H32zM33,12H34V13H33zM41,12H42V13H41zM42,12H43V13H42zM4,13H5V14H4zM7,13H8V14H7zM11,13H12V14H11zM12,13H13V14H12zM16,13H17V14H16zM19,13H20V14H19zM21,13H22V14H21zM23,13H24V14H23zM24,13H25V14H24zM27,13H28V14H27zM28,13H29V14H28zM29,13H30V14H29zM30,13H31V14H30zM31,13H32V14H31zM34,13H35V14H34zM35,13H36V14H35zM39,13H40V14H39zM40,13H41V14H40zM43,13H44V14H43zM8,14H9V15H8zM10,14H11V15H10zM14,14H15V15H14zM16,14H17V15H16zM19,14H20V15H19zM22,14H23V15H22zM23,14H24V15H23zM24,14H25V15H24zM25,14H26V15H25zM26,14H27V15H26zM27,14H28V15H27zM30,14H31V15H30zM31,14H32V15H31zM33,14H34V15H33zM37,14H38V15H37zM40,14H41V15H40zM42,14H43V15H42zM4,15H5V16H4zM5,15H6V16H5zM7,15H8V16H7zM8,15H9V16H8zM9,15H10V16H9zM13,15H14V16H13zM14,15H15V16H14zM15,15H16V16H15zM22,15H23V16H22zM26,15H27V16H26zM28,15H29V16H28zM29,15H30V16H29zM33,15H34V16H33zM35,15H36V16H35zM36,15H37V16H36zM37,15H38V16H37zM38,15H39V16H38zM41,15H42V16H41zM5,16H6V17H5zM7,16H8V17H7zM10,16H11V17H10zM14,16H15V17H14zM16,16H17V17H16zM17,16H18V17H17zM18,16H19V17H18zM23,16H24V17H23zM24,16H25V17H24zM27,16H28V17H27zM28,16H29V17H28zM29,16H30V17H29zM30,16H31V17H30zM36,16H37V17H36zM37,16H38V17H37zM38,16H39V17H38zM39,16H40V17H39zM43,16H44V17H43zM44,16H45V17H44zM7,17H8V18H7zM8,17H9V18H8zM11,17H12V18H11zM12,17H13V18H12zM14,17H15V18H14zM19,17H20V18H19zM22,17H23V18H22zM26,17H27V18H26zM28,17H29V18H28zM29,17H30V18H29zM34,17H35V18H34zM35,17H36V18H35zM37,17H38V18H37zM39,17H40V18H39zM40,17H41V18H40zM41,17H42V18H41zM42,17H43V18H42zM44,17H45V18H44zM5,18H6V19H5zM7,18H8V19H7zM9,18H10V19H9zM10,18H11V19H10zM12,18H13V19H12zM15,18H16V19H15zM18,18H19V19H18zM20,18H21V19H20zM24,18H25V19H24zM26,18H27V19H26zM28,18H29V19H28zM29,18H30V19H29zM31,18H32V19H31zM33,18H34V19H33zM34,18H35V19H34zM37,18H38V19H37zM38,18H39V19H38zM42,18H43V19H42zM44,18H45V19H44zM6,19H7V20H6zM7,19H8V20H7zM9,19H10V20H9zM15,19H16V20H15zM19,19H20V20H19zM21,19H22V20H21zM22,19H23V20H22zM24,19H25V20H24zM27,19H28V20H27zM32,19H33V20H32zM35,19H36V20H35zM37,19H38V20H37zM39,19H40V20H39zM42,19H43V20H42zM43,19H44V20H43zM44,19H45V20H44zM4,20H5V21H4zM7,20H8V21H7zM10,20H11V21H10zM12,20H13V21H12zM14,20H15V21H14zM17,20H18V21H17zM20,20H21V21H20zM21,20H22V21H21zM22,20H23V21H22zM27,20H28V21H27zM28,20H29V21H28zM29,20H30V21H29zM30,20H31V21H30zM31,20H32V21H31zM32,20H33V21H32zM35,20H36V21H35zM36,20H37V21H36zM37,20H38V21H37zM41,20H42V21H41zM44,20H45V21H44zM6,21H7V22H6zM8,21H9V22H8zM13,21H14V22H13zM15,21H16V22H15zM16,21H17V22H16zM19,21H20V22H19zM22,21H23V22H22zM24,21H25V22H24zM28,21H29V22H28zM31,21H32V22H31zM34,21H35V22H34zM35,21H36V22H35zM37,21H38V22H37zM40,21H41V22H40zM41,21H42V22H41zM42,21H43V22H42zM43,21H44V22H43zM4,22H5V23H4zM7,22H8V23H7zM8,22H9V23H8zM9,22H10V23H9zM10,22H11V23H10zM12,22H13V23H12zM13,22H14V23H13zM15,22H16V23H15zM16,22H17V23H16zM19,22H20V23H19zM21,22H22V23H21zM22,22H23V23H22zM23,22H24V23H23zM27,22H28V23H27zM31,22H32V23H31zM35,22H36V23H35zM38,22H39V23H38zM39,22H40V23H39zM40,22H41V23H40zM43,22H44V23H43zM44,22H45V23H44zM5,23H6V24H5zM8,23H9V24H8zM9,23H10V24H9zM11,23H12V24H11zM12,23H13V24H12zM13,23H14V24H13zM15,23H16V24H15zM18,23H19V24H18zM19,23H20V24H19zM20,23H21V24H20zM21,23H22V24H21zM22,23H23V24H22zM23,23H24V24H23zM24,23H25V24H24zM25,23H26V24H25zM26,23H27V24H26zM28,23H29V24H28zM30,23H31V24H30zM32,23H33V24H32zM33,23H34V24H33zM34,23H35V24H34zM35,23H36V24H35zM36,23H37V24H36zM37,23H38V24H37zM38,23H39V24H38zM40,23H41V24H40zM42,23H43V24H42zM43,23H44V24H43zM4,24H5V25H4zM7,24H8V25H7zM9,24H10V25H9zM10,24H11V25H10zM23,24H24V25H23zM24,24H25V25H24zM27,24H28V25H27zM31,24H32V25H31zM32,24H33V25H32zM38,24H39V25H38zM40,24H41V25H40zM41,24H42V25H41zM42,24H43V25H42zM43,24H44V25H43zM44,24H45V25H44zM4,25H5V26H4zM8,25H9V26H8zM9,25H10V26H9zM13,25H14V26H13zM16,25H17V26H16zM18,25H19V26H18zM19,25H20V26H19zM23,25H24V26H23zM26,25H27V26H26zM30,25H31V26H30zM31,25H32V26H31zM34,25H35V26H34zM35,25H36V26H35zM39,25H40V26H39zM42,25H43V26H42zM4,26H5V27H4zM5,26H6V27H5zM6,26H7V27H6zM8,26H9V27H8zM10,26H11V27H10zM11,26H12V27H11zM12,26H13V27H12zM13,26H14V27H13zM17,26H18V27H17zM18,26H19V27H18zM19,26H20V27H19zM23,26H24V27H23zM25,26H26V27H25zM26,26H27V27H26zM27,26H28V27H27zM29,26H30V27H29zM30,26H31V27H30zM31,26H32V27H31zM32,26H33V27H32zM34,26H35V27H34zM36,26H37V27H36zM38,26H39V27H38zM39,26H40V27H39zM41,26H42V27H41zM6,27H7V28H6zM9,27H10V28H9zM12,27H13V28H12zM13,27H14V28H13zM15,27H16V28H15zM18,27H19V28H18zM20,27H21V28H20zM26,27H27V28H26zM29,27H30V28H29zM30,27H31V28H30zM32,27H33V28H32zM33,27H34V28H33zM34,27H35V28H34zM36,27H37V28H36zM37,27H38V28H37zM38,27H39V28H38zM43,27H44V28H43zM4,28H5V29H4zM8,28H9V29H8zM10,28H11V29H10zM12,28H13V29H12zM17,28H18V29H17zM18,28H19V29H18zM19,28H20V29H19zM20,28H21V29H20zM22,28H23V29H22zM23,28H24V29H23zM27,28H28V29H27zM32,28H33V29H32zM35,28H36V29H35zM36,28H37V29H36zM38,28H39V29H38zM39,28H40V29H39zM41,28H42V29H41zM5,29H6V30H5zM6,29H7V30H6zM8,29H9V30H8zM11,29H12V30H11zM12,29H13V30H12zM13,29H14V30H13zM14,29H15V30H14zM24,29H25V30H24zM31,29H32V30H31zM32,29H33V30H32zM34,29H35V30H34zM36,29H37V30H36zM38,29H39V30H38zM39,29H40V30H39zM40,29H41V30H40zM42,29H43V30H42zM43,29H44V30H43zM44,29H45V30H44zM4,30H5V31H4zM6,30H7V31H6zM7,30H8V31H7zM8,30H9V31H8zM9,30H10V31H9zM10,30H11V31H10zM11,30H12V31H11zM12,30H13V31H12zM13,30H14V31H13zM16,30H17V31H16zM17,30H18V31H17zM19,30H20V31H19zM20,30H21V31H20zM21,30H22V31H21zM25,30H26V31H25zM26,30H27V31H26zM29,30H30V31H29zM30,30H31V31H30zM31,30H32V31H31zM33,30H34V31H33zM34,30H35V31H34zM35,30H36V31H35zM36,30H37V31H36zM39,30H40V31H39zM40,30H41V31H40zM41,30H42V31H41zM44,30H45V31H44zM4,31H5V32H4zM5,31H6V32H5zM7,31H8V32H7zM8,31H9V32H8zM9,31H10V32H9zM11,31H12V32H11zM12,31H13V32H12zM13,31H14V32H13zM15,31H16V32H15zM16,31H17V32H16zM18,31H19V32H18zM19,31H20V32H19zM21,31H22V32H21zM27,31H28V32H27zM30,31H31V32H30zM34,31H35V32H34zM35,31H36V32H35zM40,31H41V32H40zM41,31H42V32H41zM42,31H43V32H42zM43,31H44V32H43zM44,31H45V32H44zM6,32H7V33H6zM8,32H9V33H8zM9,32H10V33H9zM10,32H11V33H10zM12,32H13V33H12zM14,32H15V33H14zM16,32H17V33H16zM18,32H19V33H18zM19,32H20V33H19zM20,32H21V33H20zM21,32H22V33H21zM23,32H24V33H23zM25,32H26V33H25zM29,32H30V33H29zM30,32H31V33H30zM31,32H32V33H31zM34,32H35V33H34zM35,32H36V33H35zM38,32H39V33H38zM39,32H40V33H39zM41,32H42V33H41zM4,33H5V34H4zM7,33H8V34H7zM9,33H10V34H9zM12,33H13V34H12zM16,33H17V34H16zM17,33H18V34H17zM18,33H19V34H18zM19,33H20V34H19zM20,33H21V34H20zM21,33H22V34H21zM26,33H27V34H26zM29,33H30V34H29zM33,33H34V34H33zM34,33H35V34H34zM38,33H39V34H38zM39,33H40V34H39zM40,33H41V34H40zM42,33H43V34H42zM4,34H5V35H4zM5,34H6V35H5zM7,34H8V35H7zM8,34H9V35H8zM10,34H11V35H10zM12,34H13V35H12zM15,34H16V35H15zM18,34H19V35H18zM21,34H22V35H21zM23,34H24V35H23zM26,34H27V35H26zM32,34H33V35H32zM33,34H34V35H33zM34,34H35V35H34zM35,34H36V35H35zM37,34H38V35H37zM40,34H41V35H40zM41,34H42V35H41zM42,34H43V35H42zM44,34H45V35H44zM4,35H5V36H4zM5,35H6V36H5zM6,35H7V36H6zM7,35H8V36H7zM8,35H9V36H8zM9,35H10V36H9zM11,35H12V36H11zM13,35H14V36H13zM18,35H19V36H18zM19,35H20V36H19zM20,35H21V36H20zM21,35H22V36H21zM22,35H23V36H22zM28,35H29V36H28zM29,35H30V36H29zM30,35H31V36H30zM31,35H32V36H31zM32,35H33V36H32zM35,35H36V36H35zM36,35H37V36H36zM38,35H39V36H38zM39,35H40V36H39zM40,35H41V36H40zM41,35H42V36H41zM42,35H43V36H42zM43,35H44V36H43zM44,35H45V36H44zM4,36H5V37H4zM5,36H6V37H5zM6,36H7V37H6zM8,36H9V37H8zM9,36H10V37H9zM10,36H11V37H10zM11,36H12V37H11zM12,36H13V37H12zM13,36H14V37H13zM14,36H15V37H14zM16,36H17V37H16zM18,36H19V37H18zM19,36H20V37H19zM20,36H21V37H20zM21,36H22V37H21zM22,36H23V37H22zM25,36H26V37H25zM26,36H27V37H26zM28,36H29V37H28zM32,36H33V37H32zM33,36H34V37H33zM35,36H36V37H35zM36,36H37V37H36zM37,36H38V37H37zM38,36H39V37H38zM39,36H40V37H39zM40,36H41V37H40zM42,36H43V37H42zM12,37H13V38H12zM13,37H14V38H13zM14,37H15V38H14zM15,37H16V38H15zM16,37H17V38H16zM17,37H18V38H17zM18,37H19V38H18zM19,37H20V38H19zM20,37H21V38H20zM21,37H22V38H21zM24,37H25V38H24zM25,37H26V38H25zM27,37H28V38H27zM30,37H31V38H30zM31,37H32V38H31zM36,37H37V38H36zM40,37H41V38H40zM4,38H5V39H4zM5,38H6V39H5zM6,38H7V39H6zM7,38H8V39H7zM8,38H9V39H8zM9,38H10V39H9zM10,38H11V39H10zM12,38H13V39H12zM15,38H16V39H15zM19,38H20V39H19zM23,38H24V39H23zM25,38H26V39H25zM28,38H29V39H28zM30,38H31V39H30zM31,38H32V39H31zM33,38H34V39H33zM34,38H35V39H34zM35,38H36V39H35zM36,38H37V39H36zM38,38H39V39H38zM40,38H41V39H40zM42,38H43V39H42zM4,39H5V40H4zM10,39H11V40H10zM15,39H16V40H15zM16,39H17V40H16zM19,39H20V40H19zM20,39H21V40H20zM21,39H22V40H21zM22,39H23V40H22zM23,39H24V40H23zM27,39H28V40H27zM28,39H29V40H28zM33,39H34V40H33zM35,39H36V40H35zM36,39H37V40H36zM40,39H41V40H40zM41,39H42V40H41zM44,39H45V40H44zM4,40H5V41H4zM6,40H7V41H6zM7,40H8V41H7zM8,40H9V41H8zM10,40H11V41H10zM12,40H13V41H12zM13,40H14V41H13zM15,40H16V41H15zM16,40H17V41H16zM17,40H18V41H17zM20,40H21V41H20zM22,40H23V41H22zM24,40H25V41H24zM26,40H27V41H26zM27,40H28V41H27zM28,40H29V41H28zM29,40H30V41H29zM30,40H31V41H30zM31,40H32V41H31zM32,40H33V41H32zM33,40H34V41H33zM34,40H35V41H34zM35,40H36V41H35zM36,40H37V41H36zM37,40H38V41H37zM38,40H39V41H38zM39,40H40V41H39zM40,40H41V41H40zM41,40H42V41H41zM4,41H5V42H4zM6,41H7V42H6zM7,41H8V42H7zM8,41H9V42H8zM10,41H11V42H10zM12,41H13V42H12zM13,41H14V42H13zM23,41H24V42H23zM25,41H26V42H25zM26,41H27V42H26zM28,41H29V42H28zM29,41H30V42H29zM30,41H31V42H30zM31,41H32V42H31zM32,41H33V42H32zM35,41H36V42H35zM36,41H37V42H36zM39,41H40V42H39zM44,41H45V42H44zM4,42H5V43H4zM6,42H7V43H6zM7,42H8V43H7zM8,42H9V43H8zM10,42H11V43H10zM14,42H15V43H14zM15,42H16V43H15zM18,42H19V43H18zM21,42H22V43H21zM22,42H23V43H22zM23,42H24V43H23zM24,42H25V43H24zM27,42H28V43H27zM29,42H30V43H29zM30,42H31V43H30zM31,42H32V43H31zM32,42H33V43H32zM37,42H38V43H37zM39,42H40V43H39zM40,42H41V43H40zM42,42H43V43H42zM43,42H44V43H43zM44,42H45V43H44zM4,43H5V44H4zM10,43H11V44H10zM13,43H14V44H13zM16,43H17V44H16zM21,43H22V44H21zM22,43H23V44H22zM23,43H24V44H23zM24,43H25V44H24zM26,43H27V44H26zM27,43H28V44H27zM28,43H29V44H28zM29,43H30V44H29zM31,43H32V44H31zM34,43H35V44H34zM35,43H36V44H35zM40,43H41V44H40zM42,43H43V44H42zM44,43H45V44H44zM4,44H5V45H4zM5,44H6V45H5zM6,44H7V45H6zM7,44H8V45H7zM8,44H9V45H8zM9,44H10V45H9zM10,44H11V45H10zM17,44H18V45H17zM18,44H19V45H18zM19,44H20V45H19zM20,44H21V45H20zM22,44H23V45H22zM25,44H26V45H25zM26,44H27V45H26zM27,44H28V45H27zM28,44H29V45H28zM29,44H30V45H29zM32,44H33V45H32zM35,44H36V45H35zM36,44H37V45H36zM40,44H41V45H40zM42,44H43V45H42z" fill="#000000"/>
</svg>
<svg version="1.1" id="Ebene_1" x="200" y="200" viewBox="0 0 700 700" style="enable-background:new 0 0 700 700;" xml:space="preserve" width="448" height="448" shape-rendering="auto">

<path fill="#000000" d="M500,400V300v-78.8c0-11.7-9.5-21.3-21.3-21.3H221.2c-11.7,0-21.3,9.5-21.3,21.3V300v100v78.8    c0,11.7,9.5,21.3,21.3,21.3h257.5c11.7,0,21.3-9.5,21.3-21.3V400z"/>
</svg>
<svg version="1.1" id="Ebene_1" x="1352" y="200" viewBox="0 0 700 700" style="enable-background:new 0 0 700 700;" xml:space="preserve" width="448" height="448" shape-rendering="auto">

<path fill="#000000" d="M21.2-0.1C9.5-0.1-0.1,9.5-0.1,21.2v78.8v100v100v100v100v100v78.8c0,11.7,9.5,21.3,21.3,21.3h657.6  c11.7,0,21.3-9.5,21.3-21.3V600V500V400V300V200v-100V21.2c0-11.7-9.5-21.3-21.3-21.3H21.2z M600,200v100v100v100v87.8  c0,6.8-5.5,12.2-12.2,12.2H112.2c-6.8,0-12.2-5.5-12.2-12.2V500V400V300V200v-87.8c0-6.8,5.5-12.2,12.2-12.2h475.6  c6.8,0,12.2,5.5,12.2,12.2V200z"/>
</svg>
<svg version="1.1" id="Ebene_1" x="1352" y="200" viewBox="0 0 700 700" style="enable-background:new 0 0 700 700;" xml:space="preserve" width="448" height="448" shape-rendering="auto">

<path fill="#000000" d="M500,400V300v-78.8c0-11.7-9.5-21.3-21.3-21.3H221.2c-11.7,0-21.3,9.5-21.3,21.3V300v100v78.8    c0,11.7,9.5,21.3,21.3,21.3h257.5c11.7,0,21.3-9.5,21.3-21.3V400z"/>
</svg>
<svg version="1.1" id="Ebene_1" x="200" y="1352" viewBox="0 0 700 700" style="enable-background:new 0 0 700 700;" xml:space="preserve" width="448" height="448" shape-rendering="auto">

<path fill="#000000" d="M21.2-0.1C9.5-0.1-0.1,9.5-0.1,21.2v78.8v100v100v100v100v100v78.8c0,11.7,9.5,21.3,21.3,21.3h657.6  c11.7,0,21.3-9.5,21.3-21.3V600V500V400V300V200v-100V21.2c0-11.7-9.5-21.3-21.3-21.3H21.2z M600,200v100v100v100v87.8  c0,6.8-5.5,12.2-12.2,12.2H112.2c-6.8,0-12.2-5.5-12.2-12.2V500V400V300V200v-87.8c0-6.8,5.5-12.2,12.2-12.2h475.6  c6.8,0,12.2,5.5,12.2,12.2V200z"/>
</svg>
<svg version="1.1" id="Ebene_1" x="200" y="1352" viewBox="0 0 700 700" style="enable-background:new 0 0 700 700;" xml:space="preserve" width="448" height="448" shape-rendering="auto">

<path fill="#000000" d="M500,400V300v-78.8c0-11.7-9.5-21.3-21.3-21.3H221.2c-11.7,0-21.3,9.5-21.3,21.3V300v100v78.8    c0,11.7,9.5,21.3,21.3,21.3h257.5c11.7,0,21.3-9.5,21.3-21.3V400z"/>
</svg>
</svg>

<path id="FrameBody" class="frame-color" d="M243.1,289.8H35.9c-19.8,0-35.9,16.1-35.9,36l0,0c0,19.8,16.1,35.9,35.9,35.9H243
	c19.8,0,35.9-16.1,35.9-35.9l0,0C279,305.9,262.9,289.8,243.1,289.8L243.1,289.8z M265.3,0H13.7C6.1,0,0,6.1,0,13.7v251.7
	c0,7.5,6.1,13.7,13.7,13.7h251.7c7.5,0,13.7-6.1,13.7-13.7V13.7C279,6.1,272.9,0,265.3,0z M268.5,261.1c0,4.1-3.3,7.4-7.4,7.4H17.9
	c-4.1,0-7.4-3.3-7.4-7.4V17.9c0-4.1,3.3-7.4,7.4-7.4h243.2c4.1,0,7.4,3.3,7.4,7.4V261.1z"/>
<path id="IconCircle" class="circle-color show_on_light" d="M35.9,297.2c-15.8,0-28.5,12.7-28.5,28.5s12.7,28.5,28.5,28.5s28.5-12.7,28.5-28.5
	C64.4,310,51.7,297.2,35.9,297.2z"/>
<path id="IconCircle" class="circle-color-black hide_on_light" d="M35.9,297.2c-15.8,0-28.5,12.7-28.5,28.5s12.7,28.5,28.5,28.5s28.5-12.7,28.5-28.5
	C64.4,310,51.7,297.2,35.9,297.2z"/>
<path id="IconCircleOutline" class="circle-outline show_on_light" d="M35.9,299.2c14.6,0,26.5,11.9,26.5,26.5s-11.9,26.5-26.5,26.5S9.4,340.3,9.4,325.7
	S21.3,299.2,35.9,299.2 M35.9,297.2c-15.8,0-28.5,12.7-28.5,28.5s12.7,28.5,28.5,28.5s28.5-12.7,28.5-28.5
	C64.4,310,51.7,297.2,35.9,297.2L35.9,297.2z"/>
<path id="PhoneIcon" class="icon-color hide_on_light" d="M48.2,307.5v13v2v21c0,2.3-1.9,4.1-4.1,4.1H26.4c-2.3,0-4.1-1.9-4.1-4.1v-21v-2v-13c0-2.3,1.9-4.1,4.1-4.1
	h17.7C46.3,303.4,48.2,305.3,48.2,307.5z M29.9,307.7c0,1.1,0.9,1.9,1.9,1.9h6.8c1.1,0,1.9-0.9,1.9-1.9s-0.9-1.9-1.9-1.9h-6.7
	C30.8,305.8,29.9,306.6,29.9,307.7z M45.1,312.4l-19.9-0.2v26.6h19.9V312.4z M32.5,343.2c0,1.4,1.3,2.7,2.7,2.7s2.7-1.3,2.7-2.7
	s-1.3-2.7-2.7-2.7C33.8,340.4,32.5,341.7,32.5,343.2z"/>
<path id="PhoneIconBlack" class="icon-black show_on_light" d="M48.2,307.5v13v2v21c0,2.3-1.9,4.1-4.1,4.1H26.4c-2.3,0-4.1-1.9-4.1-4.1v-21v-2v-13
	c0-2.3,1.9-4.1,4.1-4.1h17.7C46.3,303.4,48.2,305.3,48.2,307.5z M29.9,307.7c0,1.1,0.9,1.9,1.9,1.9h6.8c1.1,0,1.9-0.9,1.9-1.9
	s-0.9-1.9-1.9-1.9h-6.7C30.8,305.8,29.9,306.6,29.9,307.7z M45.1,312.4l-19.9-0.2v26.6h19.9V312.4z M32.5,343.2
	c0,1.4,1.3,2.7,2.7,2.7s2.7-1.3,2.7-2.7s-1.3-2.7-2.7-2.7C33.8,340.4,32.5,341.7,32.5,343.2z"/>
	<svg id="TextArea" x="70" y="295" width="180" height="62" viewBox="0 0 49.04345703125 17.588541666667" preserveAspectRatio="xMidYMid meet">
<svg version="1.1" xmlns="http://www.w3.org/2000/svg"><path class="text-color" fill="#ffffff" d=" M8.37890625,11.09130859375q0,1.02587890625-0.7412109375,1.61669921875t-2.0625,0.5908203125q-1.396484375,0-2.1591796875-0.37060546875l0-0.9453125q0.49951171875,0.21484375,1.093017578125,0.33837890625t1.109130859375,0.12353515625q0.880859375,0,1.32666015625-0.33837890625t0.44580078125-0.92919921875q0-0.39208984375-0.1611328125-0.64453125t-0.539794921875-0.47265625t-1.146728515625-0.49951171875q-1.09033203125-0.3974609375-1.5576171875-0.937255859375t-0.46728515625-1.393798828125q0-0.91845703125,0.690185546875-1.4609375t1.818115234375-0.54248046875q1.17626953125,0,2.16455078125,0.4404296875l-0.30615234375,0.8486328125q-1.009765625-0.4189453125-1.8798828125-0.4189453125q-0.6982421875,0-1.093017578125,0.30078125t-0.394775390625,0.84326171875q0,0.38671875,0.153076171875,0.641845703125t0.494140625,0.464599609375t1.071533203125,0.47802734375q0.87548828125,0.322265625,1.30517578125,0.625732421875t0.6337890625,0.6982421875t0.2041015625,0.942626953125z M12.1923828125,13.298828125q-1.27294921875,0-1.98193359375-0.781494140625t-0.708984375-2.242431640625q0-1.482421875,0.717041015625-2.285400390625t2.043701171875-0.802978515625q0.4296875,0,0.851318359375,0.088623046875t0.695556640625,0.228271484375l-0.29541015625,0.8056640625q-0.74658203125-0.279296875-1.27294921875-0.279296875q-0.8916015625,0-1.31591796875,0.561279296875t-0.42431640625,1.673095703125q0,1.06884765625,0.42431640625,1.635498046875t1.2568359375,0.566650390625q0.77880859375,0,1.53076171875-0.34375l0,0.859375q-0.6123046875,0.31689453125-1.52001953125,0.31689453125z M18.75048828125,13.19140625l-0.18798828125-0.837890625l-0.04296875,0q-0.4404296875,0.55322265625-0.878173828125,0.749267578125t-1.103759765625,0.196044921875q-0.8701171875,0-1.3642578125-0.45654296875t-0.494140625-1.2890625q0-1.7939453125,2.83056640625-1.8798828125l0.9990234375-0.03759765625l0-0.34912109375q0-0.67138671875-0.2900390625-0.990966796875t-0.92919921875-0.319580078125q-0.46728515625,0-0.883544921875,0.1396484375t-0.781494140625,0.3115234375l-0.29541015625-0.72509765625q0.44580078125-0.236328125,0.97216796875-0.37060546875t1.0419921875-0.13427734375q1.06884765625,0,1.58984375,0.47265625t0.52099609375,1.50390625l0,4.017578125l-0.70361328125,0z M16.7578125,12.52001953125q0.81103515625,0,1.275634765625-0.437744140625t0.464599609375-1.243408203125l0-0.53173828125l-0.8701171875,0.03759765625q-1.01513671875,0.03759765625-1.479736328125,0.322265625t-0.464599609375,0.89697265625q0,0.4619140625,0.281982421875,0.708984375t0.792236328125,0.2470703125z M25.2978515625,13.19140625l0-3.7705078125q0-0.7197265625-0.319580078125-1.071533203125t-1.001708984375-0.351806640625q-0.90771484375,0-1.318603515625,0.502197265625t-0.410888671875,1.635498046875l0,3.05615234375l-0.966796875,0l0-5.8974609375l0.77880859375,0l0.14501953125,0.8056640625l0.0537109375,0q0.27392578125-0.43505859375,0.76806640625-0.674072265625t1.09033203125-0.239013671875q1.0849609375,0,1.611328125,0.5263671875t0.5263671875,1.63818359375l0,3.84033203125l-0.9560546875,0z  M34.5361328125,13.19140625l-2.5888671875-6.8857421875l-0.04296875,0q0.08056640625,0.859375,0.08056640625,2.12158203125l0,4.76416015625l-0.9130859375,0l0-7.8525390625l1.4609375,0l2.42236328125,6.4345703125l0.04296875,0l2.46533203125-6.4345703125l1.4501953125,0l0,7.8525390625l-0.9775390625,0l0-4.82861328125q0-0.8056640625,0.0751953125-2.04638671875l-0.04296875,0l-2.62109375,6.875l-0.81103515625,0z M43.42529296875,13.298828125q-1.32666015625,0-2.081298828125-0.802978515625t-0.754638671875-2.210205078125q0-1.41796875,0.70361328125-2.258544921875t1.9013671875-0.840576171875q1.11181640625,0,1.7724609375,0.717041015625t0.66064453125,1.941650390625l0,0.58544921875l-4.0390625,0q0.02685546875,1.00439453125,0.51025390625,1.525390625t1.36962890625,0.52099609375q0.47265625,0,0.89697265625-0.083251953125t0.99365234375-0.324951171875l0,0.8486328125q-0.48876953125,0.20947265625-0.91845703125,0.29541015625t-1.01513671875,0.0859375z M43.18359375,7.97607421875q-0.69287109375,0-1.095703125,0.44580078125t-0.47802734375,1.24072265625l3.00244140625,0q-0.0107421875-0.8271484375-0.38134765625-1.2568359375t-1.04736328125-0.4296875z "/></svg>
</svg>

</svg>
